<?xml version="1.0" encoding="utf-8"?>
<!-- Generator: Adobe Illustrator 27.9.1, SVG Export Plug-In . SVG Version: 6.00 Build 0)  -->
<svg version="1.1" id="レイヤー_1" xmlns="http://www.w3.org/2000/svg" xmlns:xlink="http://www.w3.org/1999/xlink" x="0px"
	 y="0px" viewBox="0 0 800 800" style="enable-background:new 0 0 800 800;" xml:space="preserve">
<style type="text/css">
	.st0{fill:none;stroke:#000000;stroke-width:30;stroke-linecap:round;stroke-linejoin:round;stroke-miterlimit:133.3333;}
</style>
<path class="st0" d="M66.7,250c0-26.2,5.5-51.1,15.4-73.7l85,85c26,26,68.2,26,94.3,0c26-26,26-68.2,0-94.3l-85-85
	c22.5-9.9,47.5-15.4,73.7-15.4c101.3,0,183.3,82.1,183.3,183.3c0,26.2-5.5,51.1-15.4,73.7l296.6,296.6c26,26,26,68.2,0,94.3l0,0
	c-26,26-68.2,26-94.3,0L323.7,417.9c-22.5,9.9-47.5,15.4-73.7,15.4C148.7,433.3,66.7,351.3,66.7,250z"/>
</svg>
