<?xml version="1.0" encoding="utf-8"?>
<!-- Generator: Adobe Illustrator 27.9.1, SVG Export Plug-In . SVG Version: 6.00 Build 0)  -->
<svg version="1.1" id="_x32_" xmlns="http://www.w3.org/2000/svg" xmlns:xlink="http://www.w3.org/1999/xlink" x="0px" y="0px"
	 viewBox="0 0 512 512" style="enable-background:new 0 0 512 512;" xml:space="preserve">
<g>
	<path d="M501.7,371.8c-15.1,9-33.1,13.9-51.5,16.5c-18.4,2.6-37.3,3-56.1,1.9c-37.6-2.3-75.2-10.2-109.6-24.4
		c-9.1-3.8-17.9-8.2-26.2-13.1c12.7,2.2,25.3,3.1,38,3.4c21.1,0.1,42.1-2.8,62.3-8.6c40.2-11.7,77.7-34.4,104-67.9
		c13.1-16.7,23.1-36.3,27.2-57.8c4.2-21.4,1.5-44.4-7.6-64.1l-17.8,7.9c7,16.4,8.6,34.6,4.8,52c-3.8,17.4-12.6,33.7-24.3,47.8
		c-23.5,28.3-57.4,47.8-93.1,57c-5,1.3-10.1,2.3-15.2,3.2c3.2-2.2,6.4-4.4,9.4-7c17.4-14.6,28.6-36.9,30.2-59.2
		c1.9-22.3-3.9-44.1-13.9-62.7c-10-18.7-24.2-34.8-40.8-47.3c-33.3-25.4-75.6-35.7-115.8-33.5l0.7,19.5c36.6-1,73.3,9.5,101.1,32
		c13.8,11.1,25.4,25,33.1,40.5c7.8,15.5,11.5,32.8,9.7,48.9c-1.6,14-8,26.5-17.7,36.2c-0.4-3.1-1-6.1-1.9-8.7
		c-2.4-6.8-5.7-12.5-9.4-17.4c-7.2-9.3-14.4-16.9-22.6-24.4c-16.2-14.8-34.5-26.8-53.9-36.2c-38.9-18.7-82.2-27.1-124.9-25
		c-42.6,2.2-85.4,15.5-120,41.5l11.5,15.7C43.1,216.1,82,205,120.9,204.1c38.9-0.9,78.1,7.8,112.4,25.5c7,3.6,13.7,7.7,20.2,12
		c-18.3-1.8-36.1-1.8-54.3-0.1c-37.6,3.5-76.1,15.9-106.1,41.4c-30.1,25-48.9,63-50.8,101.6l19.4,1.4c2.7-33.5,19.7-65,45.9-85.5
		c26-20.8,59.7-30.9,93.7-33c7.5-0.5,15.2-0.6,22.8-0.4c-6.8,2.3-13.4,5-19.6,8.4c-16.4,9.1-31.1,21.3-41.8,37.8
		c-10.7,16.4-15.4,37.1-12.8,56.3c2.5,19.3,11,36.8,22.3,51.3c22.8,29,56.3,47.1,91.3,53.6l3.8-19.1c-30.5-6.6-59-23.7-77-48.2
		c-8.9-12.1-14.9-26.2-16.2-40.3c-1.4-14,2.3-27.8,10.3-39.3c2.2-3.2,4.8-6.2,7.6-9.1c1.2,5.9,3.4,11,5.9,15.5
		c6.3,10.6,14.1,18.6,22.5,25.6c16.9,13.8,35.6,23,54.6,30.4c38.2,14.5,78.1,21.6,118.2,23c20.1,0.6,40.3-0.4,60.4-3.8
		c20-3.5,40.2-9.3,58.5-20.8L501.7,371.8z"/>
	<path d="M81.1,154.2c7.7,0,14-6.3,14-14c0-7.7-6.3-14-14-14c-7.7,0-14,6.3-14,14C67.1,147.9,73.4,154.2,81.1,154.2z"/>
	<path d="M267,57.8c5.6,0,10.1-4.5,10.1-10.1c0-5.6-4.5-10.1-10.1-10.1c-5.6,0-10.1,4.5-10.1,10.1C256.9,53.3,261.4,57.8,267,57.8z"
		/>
	<path d="M410.1,188.9c5.6,0,10.1-4.5,10.1-10.1c0-5.6-4.5-10.1-10.1-10.1c-5.6,0-10.1,4.5-10.1,10.1
		C399.9,184.3,404.5,188.9,410.1,188.9z"/>
	<path d="M473.4,320.1c0,4.3,3.5,7.7,7.7,7.7c4.3,0,7.7-3.5,7.7-7.7c0-4.3-3.4-7.7-7.7-7.7C476.9,312.4,473.4,315.8,473.4,320.1z"/>
	<path d="M352.7,443.6c-5.6,0-10.1,4.5-10.1,10.1c0,5.6,4.5,10.1,10.1,10.1c5.6,0,10.1-4.5,10.1-10.1
		C362.8,448.1,358.2,443.6,352.7,443.6z"/>
	<path d="M117.1,377.9c-6.4,0-11.6,5.2-11.6,11.6c0,6.4,5.2,11.6,11.6,11.6c6.4,0,11.6-5.2,11.6-11.6
		C128.7,383.1,123.5,377.9,117.1,377.9z"/>
	<path d="M89.7,243c4.3,0,7.7-3.4,7.7-7.7c0-4.3-3.5-7.7-7.7-7.7S82,231,82,235.3C82,239.6,85.4,243,89.7,243z"/>
	<path d="M267,171.1c0-4.3-3.4-7.7-7.7-7.7c-4.3,0-7.7,3.5-7.7,7.7c0,4.3,3.4,7.7,7.7,7.7C263.5,178.8,267,175.3,267,171.1z"/>
</g>
</svg>
